{
	"asset":{
		"generator":"Khronos glTF Blender I/O v4.5.47",
		"version":"2.0"
	},
	"extensionsUsed":[
		"EXT_texture_webp"
	],
	"extensionsRequired":[
		"EXT_texture_webp"
	],
	"scene":0,
	"scenes":[
		{
			"name":"Scene",
			"nodes":[
				0,
				1,
				2
			]
		}
	],
	"nodes":[
		{
			"mesh":0,
			"name":"Marco01"
		},
		{
			"mesh":1,
			"name":"Patas"
		},
		{
			"mesh":2,
			"name":"Glass"
		}
	],
	"materials":[
		{
			"doubleSided":true,
			"name":"Lentes01",
			"pbrMetallicRoughness":{
				"baseColorTexture":{
					"index":0
				},
				"metallicRoughnessTexture":{
					"index":1
				}
			}
		},
		{
			"alphaMode":"BLEND",
			"doubleSided":true,
			"name":"glass",
			"pbrMetallicRoughness":{
				"baseColorTexture":{
					"index":2
				},
				"metallicRoughnessTexture":{
					"index":3
				}
			}
		}
	],
	"meshes":[
		{
			"name":"Mesh",
			"primitives":[
				{
					"attributes":{
						"POSITION":0,
						"NORMAL":1,
						"TEXCOORD_0":2
					},
					"indices":3,
					"material":0
				}
			]
		},
		{
			"name":"Plane.001",
			"primitives":[
				{
					"attributes":{
						"POSITION":4,
						"NORMAL":5,
						"TEXCOORD_0":6
					},
					"indices":7,
					"material":0
				}
			]
		},
		{
			"name":"Sphere",
			"primitives":[
				{
					"attributes":{
						"POSITION":8,
						"NORMAL":9,
						"TEXCOORD_0":10
					},
					"indices":11,
					"material":1
				}
			]
		}
	],
	"textures":[
		{
			"extensions":{
				"EXT_texture_webp":{
					"source":0
				}
			},
			"sampler":0
		},
		{
			"extensions":{
				"EXT_texture_webp":{
					"source":1
				}
			},
			"sampler":0
		},
		{
			"extensions":{
				"EXT_texture_webp":{
					"source":2
				}
			},
			"sampler":0
		},
		{
			"extensions":{
				"EXT_texture_webp":{
					"source":3
				}
			},
			"sampler":0
		}
	],
	"images":[
		{
			"mimeType":"image/webp",
			"name":"GLB01_Lentes01_BaseColor",
			"uri":"GLB01_Lentes01_BaseColor.webp"
		},
		{
			"mimeType":"image/webp",
			"name":"GLB01_Lentes01_Metallic-GLB01_Lentes01_Roughness",
			"uri":"GLB01_Lentes01_Metallic-GLB01_Lentes01_Roughness.webp"
		},
		{
			"mimeType":"image/webp",
			"name":"GLB01_glass_BaseColor",
			"uri":"GLB01_glass_BaseColor.webp"
		},
		{
			"mimeType":"image/webp",
			"name":"GLB01_glass_Metallic-GLB01_glass_Roughness",
			"uri":"GLB01_glass_Metallic-GLB01_glass_Roughness.webp"
		}
	],
	"accessors":[
		{
			"bufferView":0,
			"componentType":5126,
			"count":7238,
			"max":[
				0.43406376242637634,
				0.11331109702587128,
				0.04474835842847824
			],
			"min":[
				-0.4346143901348114,
				-0.2049868255853653,
				-0.03494542837142944
			],
			"type":"VEC3"
		},
		{
			"bufferView":1,
			"componentType":5126,
			"count":7238,
			"type":"VEC3"
		},
		{
			"bufferView":2,
			"componentType":5126,
			"count":7238,
			"type":"VEC2"
		},
		{
			"bufferView":3,
			"componentType":5123,
			"count":27264,
			"type":"SCALAR"
		},
		{
			"bufferView":4,
			"componentType":5126,
			"count":4076,
			"max":[
				0.4427497982978821,
				0.048133209347724915,
				-0.029758751392364502
			],
			"min":[
				-0.4427497386932373,
				-0.19725334644317627,
				-0.8494254946708679
			],
			"type":"VEC3"
		},
		{
			"bufferView":5,
			"componentType":5126,
			"count":4076,
			"type":"VEC3"
		},
		{
			"bufferView":6,
			"componentType":5126,
			"count":4076,
			"type":"VEC2"
		},
		{
			"bufferView":7,
			"componentType":5123,
			"count":16128,
			"type":"SCALAR"
		},
		{
			"bufferView":8,
			"componentType":5126,
			"count":1436,
			"max":[
				0.36872026324272156,
				0.07897745072841644,
				0.03934537619352341
			],
			"min":[
				-0.36872026324272156,
				-0.17349790036678314,
				-0.019080907106399536
			],
			"type":"VEC3"
		},
		{
			"bufferView":9,
			"componentType":5126,
			"count":1436,
			"type":"VEC3"
		},
		{
			"bufferView":10,
			"componentType":5126,
			"count":1436,
			"type":"VEC2"
		},
		{
			"bufferView":11,
			"componentType":5123,
			"count":5760,
			"type":"SCALAR"
		}
	],
	"bufferViews":[
		{
			"buffer":0,
			"byteLength":86856,
			"byteOffset":0,
			"target":34962
		},
		{
			"buffer":0,
			"byteLength":86856,
			"byteOffset":86856,
			"target":34962
		},
		{
			"buffer":0,
			"byteLength":57904,
			"byteOffset":173712,
			"target":34962
		},
		{
			"buffer":0,
			"byteLength":54528,
			"byteOffset":231616,
			"target":34963
		},
		{
			"buffer":0,
			"byteLength":48912,
			"byteOffset":286144,
			"target":34962
		},
		{
			"buffer":0,
			"byteLength":48912,
			"byteOffset":335056,
			"target":34962
		},
		{
			"buffer":0,
			"byteLength":32608,
			"byteOffset":383968,
			"target":34962
		},
		{
			"buffer":0,
			"byteLength":32256,
			"byteOffset":416576,
			"target":34963
		},
		{
			"buffer":0,
			"byteLength":17232,
			"byteOffset":448832,
			"target":34962
		},
		{
			"buffer":0,
			"byteLength":17232,
			"byteOffset":466064,
			"target":34962
		},
		{
			"buffer":0,
			"byteLength":11488,
			"byteOffset":483296,
			"target":34962
		},
		{
			"buffer":0,
			"byteLength":11520,
			"byteOffset":494784,
			"target":34963
		}
	],
	"samplers":[
		{
			"magFilter":9729,
			"minFilter":9987
		}
	],
	"buffers":[
		{
			"byteLength":506304,
			"uri":"Palermocarey.bin"
		}
	]
}
